<?xml version="1.0" encoding="utf-8"?>
<!-- Generator: Adobe Illustrator 22.0.0, SVG Export Plug-In . SVG Version: 6.00 Build 0)  -->
<svg version="1.2" baseProfile="tiny" id="Layer_1" xmlns="http://www.w3.org/2000/svg" xmlns:xlink="http://www.w3.org/1999/xlink"
	 x="0px" y="0px" viewBox="0 0 1128.9 232.4" xml:space="preserve">
<g>
	<g>
		<path fill="#0727E2" d="M603.4,141.4V162h-1c-1.1-7.9-2.9-13.3-5.3-16.3c-2-2.5-4.9-3.7-8.8-3.7c-1,0-1.5,0-1.6,0.1
			c-0.2,0.1-0.3,0.8-0.3,1.9v39.2c0,1.4,0.1,2.3,0.3,2.7c0.1,0.2,0.4,0.4,1,0.6c0.6,0.2,1.7,0.4,3.3,0.5c1.6,0.1,3.9,0.2,6.7,0.2
			v0.7h-31.5v-0.7c2.7,0,4.9-0.1,6.6-0.2c1.6-0.1,2.7-0.3,3.3-0.5c0.6-0.2,1-0.5,1.1-0.8c0.2-0.3,0.3-1.1,0.3-2.5v-39.1
			c0-1.3-0.1-1.9-0.4-2c-0.1,0-0.7-0.1-1.5-0.1c-3.8,0-6.6,1.2-8.6,3.6c-2.4,3-4.2,8.4-5.4,16.2h-1v-20.5H603.4z"/>
		<path fill="#0727E2" d="M653.3,177.6v2.4c0,2.8-0.3,4.8-0.8,5.9c-0.9,1.8-2.6,2.7-5.2,2.7c-3.3,0-5.6-1.3-6.6-3.8
			c-0.9-2-1.3-5.9-1.3-11.6v-1.5c0-0.5,0-1,0.1-1.5c0-2.6-0.6-4.3-1.8-5.2c-1.2-0.9-2.9-1.3-5.2-1.3H624v19.4c0,1.5,0.1,2.4,0.3,2.8
			c0.2,0.4,0.5,0.7,1.1,0.9c0.6,0.2,1.7,0.4,3.4,0.4c1.7,0,3.5,0.1,5.4,0.1v0.7h-29.4v-0.7c5.1,0,8.1-0.2,9.1-0.6
			c0.5-0.2,0.8-0.5,1-0.8c0.2-0.4,0.3-1.2,0.3-2.6v-37.3c0-1.4-0.1-2.2-0.3-2.5c-0.1-0.2-0.4-0.4-0.9-0.6c-1.4-0.5-4.5-0.8-9.2-0.8
			v-0.7h29.6c5.2,0,9.4,1.4,12.4,4.2c2.5,2.2,3.7,4.5,3.7,6.9c0,2.8-1,5.1-2.9,6.9c-2.3,2.2-6,3.6-11,4.1c5.1,1,8.5,3.9,10.2,8.6
			c0.8,2.4,1.2,5.9,1.2,10.7c0,1.4,0.1,2.4,0.4,3s0.8,0.9,1.8,0.9c1,0,1.7-0.8,2.1-2.4c0.4-1.6,0.6-3.8,0.6-6.7H653.3z M624,163h6.7
			c3.5,0,6.1-0.7,7.8-2c2-1.6,3-4.2,3-7.9c0-4.1-0.8-7-2.5-8.6s-4.4-2.5-8.2-2.5h-3.5c-1,0-1.8,0.1-2.2,0.2
			c-0.5,0.1-0.8,0.4-0.9,0.9c-0.1,0.5-0.2,1.4-0.2,2.8V163z"/>
		<path fill="#0727E2" d="M682.4,171.8h-13.9l-2.2,6.4c-0.6,1.6-0.9,3-0.9,4.1c0,1.8,0.7,3.1,2,3.9c1.3,0.8,3.3,1.2,5.7,1.2v0.7
			h-18.4v-0.7c3.3,0,5.9-1.3,7.7-3.8c1-1.4,2.3-4.3,3.9-8.7l12.2-34.1h1.4l15.6,42.5c0.7,2,1.4,3.2,2.2,3.5s2.9,0.5,6.5,0.5v0.7
			h-26.7v-0.7c3.6,0,6.1-0.1,7.5-0.4c1.3-0.3,2-0.8,2-1.6l-0.1-0.7L682.4,171.8z M682.1,171l-6.6-18.4l-6.6,18.4H682.1z"/>
		<path fill="#0727E2" d="M713.9,188.7l-15.4-42.6c-0.7-1.9-1.4-3.1-2.2-3.5c-0.8-0.4-3.1-0.6-6.8-0.6v-0.7h26.3v0.7
			c-3.3,0-5.6,0.2-6.8,0.5c-1.2,0.3-1.8,1-1.8,1.9c0,0.4,0.1,0.9,0.4,1.7l11.4,30.6l7.7-22.8c0.8-2.6,1.2-4.6,1.2-6.1
			c0-3.8-2.5-5.7-7.5-5.7v-0.7H739v0.7c-4.1,0-7.2,1.9-9,5.7c-0.6,1.2-1.4,3.5-2.6,6.7l-11.4,34.3H713.9z"/>
		<path fill="#0727E2" d="M757.8,163.8v19.4c0,1.4,0.1,2.2,0.2,2.5c0.1,0.3,0.6,0.6,1.4,0.9c0.8,0.3,1.7,0.4,2.7,0.5
			c1,0,2.8,0.1,5.4,0.1c5.5,0,9.6-1.6,12.4-4.9c2.8-3.3,4.6-8.5,5.3-15.7h0.9V188h-47v-0.7c4.3,0,7.1-0.3,8.5-0.8
			c0.5-0.2,0.8-0.4,1-0.8s0.3-1.1,0.3-2.5v-37.2c0-1.4-0.1-2.3-0.3-2.6c-0.1-0.2-0.4-0.4-0.9-0.6c-0.5-0.2-1.6-0.4-3.3-0.6
			c-1.6-0.2-3.4-0.3-5.3-0.3v-0.7h44.6v18.1h-0.9c0-3.7-0.9-7.3-2.8-10.7c-2.5-4.5-6-6.8-10.6-6.8c-1.8,0-3.7,0-5.5,0
			c-1.9,0-3.5,0.3-4.9,0.7c-0.4,0.2-0.7,0.5-0.9,0.8c-0.2,0.3-0.3,1.2-0.3,2.6v17c5,0,8.1-0.5,9.3-1.5c1.8-1.5,3.1-5.7,3.8-12.4h0.9
			v28.5h-0.9c-0.7-6.6-2-10.7-3.7-12.2C765.9,164.3,762.8,163.8,757.8,163.8z"/>
		<path fill="#0727E2" d="M817.7,187.2c5.8,0,10.3-1.8,13.3-5.3c3.1-3.6,4.6-8.9,4.6-16.1h0.9V188h-47.3v-0.7c2.1,0,3.9-0.1,5.4-0.2
			c1.5-0.1,2.5-0.3,3.1-0.5c0.6-0.2,0.9-0.5,1.1-0.8s0.3-1.1,0.3-2.5v-37.2c0-1.4-0.1-2.3-0.3-2.6c-0.1-0.2-0.4-0.4-1-0.6
			c-0.6-0.2-1.6-0.4-3.3-0.6c-1.6-0.2-3.4-0.3-5.3-0.3v-0.7H819v0.7c-2.7,0-4.8,0.1-6.3,0.2c-1.5,0.1-2.6,0.3-3.2,0.6
			c-0.6,0.2-1,0.5-1.1,0.7c-0.2,0.4-0.4,1.3-0.4,2.6v37.1c0,1.4,0.1,2.3,0.3,2.7c0.1,0.2,0.4,0.4,0.9,0.6
			C810.8,186.9,813.7,187.2,817.7,187.2z"/>
	</g>
	<g>
		<g>
			<path fill="#0727E2" d="M329.5,61.6v27.2c0,1.9,0.1,3.1,0.3,3.6c0.2,0.5,0.8,0.9,1.9,1.3c1.1,0.4,2.3,0.6,3.8,0.7
				c1.4,0.1,4,0.1,7.6,0.1c7.7,0,13.5-2.3,17.5-6.9c4-4.6,6.4-12,7.5-22.1h1.3v30.2h-66.1v-1c6,0,10-0.4,12-1.1
				c0.7-0.3,1.1-0.6,1.4-1.1c0.2-0.4,0.4-1.6,0.4-3.5V36.7c0-2-0.1-3.2-0.4-3.7c-0.1-0.3-0.6-0.5-1.3-0.8c-0.7-0.3-2.3-0.5-4.6-0.8
				c-2.3-0.3-4.8-0.4-7.4-0.4V30H366v25.4h-1.3c0-5.2-1.3-10.2-4-15c-3.5-6.3-8.5-9.5-14.9-9.5c-2.6,0-5.2,0-7.8,0.1s-4.9,0.4-6.9,1
				c-0.6,0.3-1,0.6-1.3,1.1c-0.2,0.4-0.4,1.7-0.4,3.6v23.9c7,0,11.4-0.7,13-2.1c2.6-2.2,4.3-8,5.4-17.5h1.2V81h-1.2
				c-1-9.3-2.8-15-5.3-17.2C340.9,62.3,336.6,61.6,329.5,61.6z"/>
			<path fill="#0727E2" d="M407.3,96.5l-21.7-59.9c-1-2.7-2-4.3-3.2-4.9c-1.2-0.5-4.3-0.8-9.6-0.8V30h37V31c-4.7,0-7.9,0.2-9.6,0.7
				c-1.7,0.4-2.6,1.3-2.6,2.7c0,0.5,0.2,1.3,0.5,2.3l16,43L425,47.6c1.1-3.6,1.7-6.5,1.7-8.6c0-5.4-3.5-8-10.5-8V30h26.3V31
				c-5.8,0-10.1,2.6-12.7,7.9c-0.8,1.7-2,4.9-3.6,9.5l-16.1,48.2H407.3z"/>
			<path fill="#0727E2" d="M469,61.6v27.2c0,1.9,0.1,3.1,0.3,3.6c0.2,0.5,0.8,0.9,1.9,1.3c1.1,0.4,2.3,0.6,3.8,0.7
				c1.4,0.1,4,0.1,7.6,0.1c7.7,0,13.5-2.3,17.5-6.9c4-4.6,6.4-12,7.5-22.1h1.3v30.2h-66.1v-1c6,0,10-0.4,12-1.1
				c0.7-0.3,1.1-0.6,1.4-1.1c0.2-0.4,0.4-1.6,0.4-3.5V36.7c0-2-0.1-3.2-0.4-3.7c-0.1-0.3-0.6-0.5-1.3-0.8c-0.7-0.3-2.3-0.5-4.6-0.8
				c-2.3-0.3-4.8-0.4-7.4-0.4V30h62.7v25.4h-1.3c0-5.2-1.3-10.2-4-15c-3.5-6.3-8.5-9.5-14.9-9.5c-2.6,0-5.2,0-7.8,0.1
				s-4.9,0.4-6.9,1c-0.6,0.3-1,0.6-1.3,1.1c-0.2,0.4-0.4,1.7-0.4,3.6v23.9c7,0,11.4-0.7,13-2.1c2.6-2.2,4.3-8,5.4-17.5h1.2V81h-1.2
				c-1-9.3-2.8-15-5.3-17.2C480.4,62.3,476,61.6,469,61.6z"/>
			<path fill="#0727E2" d="M571.4,75.5V47.2c0-6.2-1.1-10.4-3.2-12.7c-2.1-2.3-5.9-3.5-11.4-3.5V30h28.9V31c-4.8,0-8.2,1.2-10.1,3.5
				c-1.9,2.3-2.8,6.6-2.8,12.7V96h-2.4L530,42.3l-1.1-1.3c-0.2,0-0.3,0.6-0.3,1.8v33.2c0,7.5,1,12.4,3,14.9c2,2.4,5.8,3.7,11.3,3.7
				v1h-29.6v-1c5.3,0,8.9-1.1,10.9-3.3c2-2.2,2.9-6.5,2.9-12.9V43.8c0-3.8-1-6.8-3.1-9c-2.4-2.6-6-3.9-10.8-3.9V30h21l35.1,45.7
				c0.9,1.2,1.4,1.7,1.6,1.7C571.3,77.5,571.4,76.8,571.4,75.5z"/>
			<path fill="#0727E2" d="M644.2,30v29h-1.4c-1.6-11.1-4-18.7-7.4-22.9c-2.8-3.5-6.9-5.2-12.3-5.2c-1.4,0-2.1,0.1-2.2,0.2
				c-0.3,0.2-0.4,1.1-0.4,2.7v55.1c0,2,0.1,3.2,0.4,3.8c0.1,0.3,0.6,0.6,1.4,0.9s2.4,0.6,4.7,0.8c2.3,0.2,5.4,0.3,9.4,0.3v1H592v-1
				c3.9,0,6.9-0.1,9.3-0.3c2.3-0.2,3.9-0.5,4.7-0.8s1.3-0.7,1.6-1.1c0.2-0.4,0.4-1.6,0.4-3.5v-55c0-1.8-0.2-2.7-0.6-2.9
				c-0.2-0.1-0.9-0.1-2.1-0.1c-5.3,0-9.3,1.7-12.1,5.1c-3.4,4.2-5.9,11.8-7.6,22.8H584V30H644.2z"/>
			<path fill="#0727E2" d="M726.3,88.9V62.6h-29v26.3c0,2,0.1,3.2,0.4,3.8c0.1,0.3,0.6,0.6,1.4,0.9c0.8,0.3,2.2,0.6,4.3,0.8
				c2.1,0.2,4.6,0.3,7.4,0.3v1H671v-1c2.9,0,5.4-0.1,7.6-0.3c2.1-0.2,3.6-0.5,4.4-0.8c0.8-0.3,1.3-0.7,1.5-1.1
				c0.2-0.4,0.4-1.6,0.4-3.5V36.7c0-2-0.1-3.2-0.4-3.7c-0.1-0.3-0.6-0.5-1.4-0.8c-0.8-0.3-2.3-0.5-4.6-0.8c-2.3-0.3-4.8-0.4-7.5-0.4
				V30h40V31c-5.8,0-9.7,0.4-11.9,1.2c-0.7,0.3-1.1,0.5-1.2,0.8c-0.3,0.6-0.5,1.8-0.5,3.7v24.2h29V36.7c0-1.9-0.2-3.1-0.5-3.7
				c-0.1-0.3-0.6-0.5-1.3-0.8c-0.7-0.3-2.3-0.5-4.6-0.8c-2.3-0.3-4.7-0.4-7.3-0.4V30h40V31c-3.1,0-5.6,0.1-7.5,0.3
				c-2,0.2-3.5,0.5-4.6,0.9l-0.9,0.4c-0.5,0.5-0.7,1.8-0.7,4.1v52.2c0,2,0.1,3.2,0.4,3.8c0.1,0.3,0.5,0.5,1.2,0.8
				c2,0.7,6,1.1,12.1,1.1v1h-39.9v-1c6,0,9.9-0.4,11.9-1.1c0.7-0.3,1.2-0.5,1.3-0.8C726.2,92.2,726.3,90.9,726.3,88.9z"/>
			<path fill="#0727E2" d="M893.2,81v3.4c0,4-0.4,6.8-1.1,8.3c-1.2,2.6-3.6,3.9-7.3,3.9c-4.7,0-7.8-1.8-9.3-5.3
				c-1.2-2.8-1.8-8.3-1.8-16.3v-2.1c0-0.7,0-1.4,0.1-2.1c0-3.6-0.8-6-2.5-7.3c-1.7-1.3-4.1-1.9-7.3-1.9H852v27.3
				c0,2,0.1,3.3,0.4,3.9c0.2,0.5,0.7,1,1.5,1.3c0.8,0.3,2.4,0.5,4.8,0.6c2.4,0.1,4.9,0.1,7.6,0.1v0.9h-41.4v-1
				c7.1,0,11.4-0.3,12.8-0.8c0.7-0.3,1.2-0.7,1.4-1.2c0.3-0.5,0.4-1.8,0.4-3.7V36.5c0-1.9-0.1-3.1-0.4-3.6c-0.1-0.3-0.6-0.5-1.3-0.8
				c-2-0.7-6.3-1.1-12.9-1.1V30h41.6c7.3,0,13.1,2,17.5,5.9c3.5,3.1,5.2,6.3,5.2,9.7c0,3.9-1.4,7.2-4.1,9.7c-3.3,3.1-8.4,5-15.5,5.8
				c7.2,1.4,12,5.4,14.3,12.1c1.2,3.3,1.7,8.3,1.7,15c0,2,0.2,3.4,0.5,4.3c0.3,0.9,1.2,1.3,2.5,1.3c1.4,0,2.4-1.1,3-3.4
				c0.5-2.3,0.8-5.4,0.8-9.4H893.2z M852,60.4h9.4c4.9,0,8.6-0.9,10.9-2.8c2.8-2.2,4.3-5.9,4.3-11.1c0-5.7-1.2-9.8-3.5-12.1
				c-2.3-2.4-6.2-3.5-11.6-3.5h-4.9c-1.4,0-2.5,0.1-3.1,0.3c-0.7,0.2-1.1,0.6-1.3,1.3c-0.2,0.6-0.3,2-0.3,3.9V60.4z"/>
			<path fill="#0727E2" d="M921.4,36.5v52.4c0,2,0.1,3.2,0.4,3.8c0.1,0.3,0.5,0.5,1.2,0.8c2,0.7,6,1.1,12.1,1.1v1h-40.1v-1
				c2.9,0,5.4-0.1,7.6-0.3c2.1-0.2,3.6-0.5,4.4-0.8c0.8-0.3,1.3-0.7,1.5-1.1c0.2-0.4,0.4-1.6,0.4-3.5V36.5c0-1.9-0.1-3.1-0.4-3.6
				c-0.1-0.3-0.6-0.5-1.3-0.8c-2-0.7-6-1.1-12.1-1.1V30h40.2V31c-2.9,0-5.4,0.1-7.6,0.3c-2.1,0.2-3.6,0.5-4.5,0.8l-1,0.4
				C921.7,32.9,921.4,34.2,921.4,36.5z"/>
			<path fill="#0727E2" d="M993.1,95.6h-56.8l36.1-55.5c3.3-5,4.9-7.8,4.9-8.2c0-0.6-1.1-0.9-3.4-0.9c-9.6,0-15.7,0.9-18.5,2.6
				c-4.9,3.1-8.1,10.4-9.4,21.9h-1.4V30h48.9l-36.1,55.5c-3.3,5-4.9,7.6-4.9,8c0,0.5,1.1,0.8,3.2,0.8c9.3,0,15.4-0.3,18.2-0.8
				c5.4-1,9.3-3.5,11.9-7.3c2.9-4.4,4.9-11.5,5.9-21.3h1.4V95.6z"/>
			<path fill="#0727E2" d="M1058.1,62.8c0,10-3.4,18.2-10.1,24.8c-6.1,6-13,8.9-20.6,8.9c-7.8,0-14.7-2.8-20.6-8.5
				c-6.7-6.4-10.1-14.8-10.1-25.2c0-10,3.4-18.2,10.1-24.7c6.1-5.9,13-8.8,20.6-8.8c7.8,0,14.7,2.8,20.6,8.4
				C1054.7,44,1058.1,52.4,1058.1,62.8z M1044.5,62.8c0-10.7-1.4-18.8-4.3-24.4c-2.9-5.5-7.2-8.3-12.9-8.3c-5.7,0-9.9,2.8-12.8,8.3
				c-2.9,5.6-4.3,13.7-4.3,24.4c0,10.6,1.4,18.7,4.3,24.3c2.9,5.7,7.1,8.5,12.8,8.5c5.6,0,9.9-2.8,12.8-8.5
				C1043.1,81.5,1044.5,73.4,1044.5,62.8z"/>
			<path fill="#0727E2" d="M1114.6,75.5V47.2c0-6.2-1.1-10.4-3.2-12.7c-2.1-2.3-5.9-3.5-11.4-3.5V30h28.9V31
				c-4.8,0-8.2,1.2-10.1,3.5c-1.9,2.3-2.8,6.6-2.8,12.7V96h-2.4l-40.4-53.7l-1.1-1.3c-0.2,0-0.3,0.6-0.3,1.8v33.2
				c0,7.5,1,12.4,3,14.9c2,2.4,5.8,3.7,11.3,3.7v1h-29.6v-1c5.3,0,8.9-1.1,10.9-3.3c2-2.2,2.9-6.5,2.9-12.9V43.8c0-3.8-1-6.8-3.1-9
				c-2.4-2.6-6-3.9-10.8-3.9V30h21l35.1,45.7c0.9,1.2,1.4,1.7,1.6,1.7C1114.5,77.5,1114.6,76.8,1114.6,75.5z"/>
		</g>
		<g>
			<path fill="#0727E2" d="M789.1,95.7c-17.8-0.1-33.6-15-32.2-35.4c1.2-16.9,15.6-31.5,34.6-30.6c17.6,0.9,31.8,16,30.7,34.7
				C821.2,81.5,807.1,95.8,789.1,95.7z M770.5,87.7c1.1,0.8,2.3,1.6,3.4,2.4c0-0.1,0.1-0.1,0.1-0.2c-0.1-1.1-0.2-2.1-0.4-3.3
				C772.6,87,771.6,87.3,770.5,87.7c-0.1-0.3-0.2-0.5-0.4-0.8c1.5-0.4,2.9-0.7,4.3-1.1c0.1,0.9,0.2,1.7,0.4,2.7
				c0.9-1.2,1.7-2.2,2.6-3.3c-1,0.1-1.9,0.2-2.8,0.4c-0.1-1-0.2-1.9-0.4-2.7c-0.1-0.4-0.1-0.9-0.3-1.2c-0.7-0.8-1.6-1.6-2.4-2.4
				c-1,0.7-2,1.4-3,2.1c-0.2,0.2-0.4,0.6-0.4,0.9c-0.1,1.1,0,2.1,0,3.4C768.7,86.2,769.6,87,770.5,87.7z M789.6,39.1
				C776.8,39,766,49.8,766,62.7c0,13.1,10.3,23.6,23.3,23.7c13,0,23.7-10.6,23.7-23.6C813,49.6,802.6,39.1,789.6,39.1z M787.2,90.3
				c1,0.6,1.8,1.1,2.8,1.7c-0.2,0.3-0.4,0.5-0.6,0.7c-1.1-0.7-2.1-1.5-3.2-2.2c0.7-1.1,1.5-2.2,2.2-3.2c-1.9-0.3-3.7-0.6-5.5-0.9
				c0,0.9,1.5,1.5,0.8,2.8c-0.5-0.8-0.8-1.4-1.3-2.2c-0.6,2-1.2,3.9-1.8,5.8c2.8,0.9,5.6,1.3,8.5,1.3c0.2,0,0.4-0.1,0.5-0.3
				c0.6-0.8,1.2-1.7,1.8-2.6c-0.9-0.6-1.8-1.1-2.7-1.7c0.2-0.3,0.3-0.5,0.5-0.7c1.1,0.8,2.1,1.5,3.3,2.2c-0.7,1-1.3,2-2,3.1
				c1.9-0.2,3.5-0.4,5.3-0.6c-0.2-2.4-0.4-4.7-0.6-6.9c-1.8,0.2-3.4,0.3-5,0.5c-0.3,0-0.7,0.2-0.8,0.5
				C788.4,88.5,787.8,89.4,787.2,90.3z M769.3,39.2c1.1-0.1,2.1-0.3,3.2-0.4c0.1,0.2,0.1,0.5,0.2,0.8c-1.1,0.1-2.1,0.2-3.1,0.3
				c-0.1,0.1-0.1,0.2-0.2,0.3c1.4,1.4,2.9,2.8,4.3,4.2c2.3-2,4.7-3.5,7.5-4.4c0.7-0.3,1-0.6,0.8-1.3c-0.1-0.5-0.1-1-0.2-1.5
				c-0.3-1.5-0.6-2.9-0.9-4.4C776.3,34,772.6,36.2,769.3,39.2z M816.7,59.7c-0.8,1-1.4,1.8-2.1,2.6c-0.6,0.7-0.9,1.5-1,2.4
				c-0.1,0.7,0.4,0.9,0.6,1.3c0.5,0.9,1.1,1.8,1.7,2.7c0.2,0.4,0.5,0.5,0.9,0.3c0.8-0.4,1.7-0.9,2.5-1.2c0.3-0.1,0.6-0.2,1-0.3
				c0.1-1.2,0.2-2.4,0.3-3.6c0-0.2,0-0.6-0.2-0.7C819.2,61.9,818,60.8,816.7,59.7z M765,82.5c0.6-0.4,1.1-0.7,1.7-1.2
				c-0.7-0.1-1.3-0.2-1.8-0.3c-0.5-0.1-1.1-0.2-0.7-1.1c0.9,0.3,1.8,0.5,2.7,0.8c0.2,0.1,0.5,0.1,0.7,0c1.1-0.7,2.2-1.5,3.3-2.2
				c-0.9-1.4-1.8-2.8-2.7-4.1c-0.1-0.2-0.3-0.3-0.5-0.4c-0.9-0.2-1.7-0.4-2.7-0.7c-0.1,1.2-0.2,2.3-0.4,3.5
				c-1.1-0.2-2.1-0.4-3.1-0.6c-0.1,0.1-0.1,0.2-0.2,0.2C762.6,78.7,763.8,80.6,765,82.5z M791.4,35.8c-0.5-0.6-1.1-1.2-1.6-1.9
				c0.7-0.8,1.4-1.6,2.3-2.6c-3.8-0.1-7.4,0.1-10.7,1.1c0.8,0.9,1.6,1.8,2.5,2.8c0.6-1.3,1.1-2.4,1.7-3.6c0.1,0,0.2,0,0.2,0.1
				c0.4,2.2,0.9,4.4,1.3,6.8c0.7-0.2,1.3-0.2,1.7-0.5C789.7,37.4,790.5,36.6,791.4,35.8z M813.4,79.4c-0.2-2.1-1-3.7-3.1-4.3
				c-0.8,1.1-1.6,2.1-2.3,3.3c-0.1,0.2-0.1,0.6,0,0.8c0.5,0.7,1,1.3,1.5,1.9c0.8,1,1.7,2.1,2.6,3.2c1.4-1.9,2.8-3.7,4.1-5.4
				c-0.1-0.1-0.1-0.1-0.2-0.2C815.3,78.9,814.4,79.2,813.4,79.4z M762.4,70.6c-0.1,0.3-0.1,0.6-0.2,0.9c-1-0.4-2-0.8-3-1.2
				c-0.1,0-0.1,0.1-0.2,0.1c0.5,1.5,1.1,3.1,1.6,4.6c0,0.1,0.1,0.3,0.2,0.3c0.9,0.3,1.9,0.6,2.9,0.9c0.1-1.3,0.2-2.4,0.3-3.7
				c1.1,0.2,2.2,0.4,3.3,0.6c-0.6-1.6-1.1-3.1-1.7-4.8c-1.9,0.4-3.7,0.9-5.5,1.3c0,0.1,0,0.1,0,0.2C761,70.1,761.7,70.4,762.4,70.6z
				 M800.5,87.4c-0.4-0.7-0.7-1.4-1-2c-0.1-0.2-0.4-0.3-0.6-0.2c-1,0.3-2,0.7-2.9,1.1c-0.2,0.1-0.3,0.3-0.3,0.5
				c0.2,1.7,0.4,3.3,0.6,4.9c0.1,0.5,0.1,1.1,0.2,1.8c2-0.7,4-1.4,5.9-2.1c-0.4-0.8-0.7-1.4-1-2.1c-0.3-0.8-0.7-1.5-1.8-0.9
				c0-0.3,0-0.6,0-0.8C799.8,87.5,800.1,87.5,800.5,87.4z M797,39.5c0.9-2.1,1.7-4.3,2.7-6.6c-2.4-0.5-4.6-1-6.8-1.5
				c0,0.1-0.1,0.2-0.1,0.3c0.4,0.7,0.8,1.4,1.3,2c0.2,0.4,0.2,0.6-0.1,0.9c-0.5,0.4-1,0.9-1.5,1.3C794.3,38.7,794.6,38.9,797,39.5z
				 M816.6,78.1c0.5-1.1,1-2.1,1.5-3c0.4-0.8,0.5-1.4-0.1-2.1c-0.8-0.9-1.3-1.9-2-3c-1.1,0.6-2.2,1.2-3.2,1.8
				c-0.3,0.2-0.8,0.3-1,0.6c-0.4,0.5-0.6,1.2-0.9,1.9C812.7,75.6,814.6,76.8,816.6,78.1z M808.1,87.9c-1.6-1.9-3-3.7-4.5-5.4
				c-1.3,0.8-2.4,1.5-3.6,2.2c0.7,1.2,0.5,3.3,2.8,2.8c0,0.3,0,0.5,0,0.7c-0.4,0-0.8,0-1.4,0c0.5,1,1,1.9,1.5,2.9
				C804.8,90,806.4,89,808.1,87.9z M814.1,48.4c-1.2,0.8-2.3,1.6-3.4,2.3c0.6,1.4,1.2,2.6,1.8,3.9c2.2-0.5,4.4-1.1,6.8-1.7
				c-0.9-2.1-1.8-4-2.6-5.9c-0.1,0-0.2,0-0.3,0.1c-0.1,1.1-0.2,2.3-0.3,3.4c-0.3,0-0.5,0-0.8,0.1c0.1-1.1,0.2-2.1,0.3-3.1
				c-0.7,0.1-1,0.5-1,1.1c0,0.8,0,1.5-0.1,2.2c0,0.2-0.3,0.4-0.5,0.6c-0.1-0.1-0.2-0.1-0.2-0.2C813.9,50.4,814,49.5,814.1,48.4z
				 M765.7,67.5c-0.1-0.5-0.1-0.9-0.2-1.2c-0.1-0.8,0-1.8-0.4-2.3c-0.5-0.5-1.5-0.4-2.3-0.5c-1.5-0.2-2.9-0.4-4.6-0.6
				c0.2,2,0.4,3.9,0.5,5.7c0.1,0,0.2,0,0.2,0c0.6-0.8,1.2-1.5,1.9-2.3c0.2,0.3,0.4,0.5,0.6,0.7c-0.6,0.6-1.2,1.3-1.7,1.9
				c0,0,0.1,0.1,0.1,0.1C761.8,68.6,763.8,68.1,765.7,67.5z M774.2,90.3c1.9,0.8,3.6,1.6,5.4,2.3c-0.2-0.9-1.8-1-1-2.3
				c0.5,0.5,0.9,1,1.4,1.5c0.7-2,1.3-3.9,1.9-5.9c-1.2-0.5-2.3-0.9-3.4-1.4C777.2,86.5,775.8,88.4,774.2,90.3z M819.3,53.6
				c-0.7,1.3-1.2,2.3-1.8,3.4c-0.8-0.7-1.5-1.3-2.3-1.9c-0.4,0.9-0.7,1.8-1.1,2.5c-0.1,0.3-0.4,0.5-0.7,0.8c0.1,1.1,0.2,2.3,0.4,3.7
				c1-1.2,1.9-2.3,2.8-3.4c1.4,1.1,2.6,2.2,4,3.4C820.6,59.2,820.2,56.5,819.3,53.6z M806.8,36.4c-0.1,0.1-0.2,0.2-0.2,0.2
				c0.5,1.2,1.1,2.4,1.6,3.6c0.2,0.5,0.2,0.8-0.1,1.1c-0.8,1-1.6,2.1-2.3,2.9c0.5,0.7,0.9,1.2,1.4,1.8c2-1.3,3.9-2.6,6.1-4
				C811,40,808.9,38.2,806.8,36.4z M758.9,56.6c-0.2,1.9-0.4,3.7-0.6,5.4c0.1,0,0.2,0.1,0.2,0.1c0.6-0.5,1.2-1,1.8-1.5
				c0.5,0.7,1,1.3,1.5,1.9c0.6-0.6,1.2-1.1,1.9-1.6c0.5,0.8,0.9,1.6,1.5,2.5c0.1-1.4,0.3-2.7,0.4-4c0-0.2-0.2-0.5-0.4-0.6
				C763.1,58,761.1,57.3,758.9,56.6z M797.8,39.7c1.2,0.6,2.2,1.1,3.3,1.5c0.2,0.1,0.6-0.1,0.7-0.2c0.8-1,1.6-2.1,2.5-3.2
				c0.5-0.6,1-1.2,1.6-1.9c-0.6-0.4-1.2-0.7-1.6-0.9c-0.4,0.2-0.7,0.4-1,0.5c-1.3,0.4-2.5,0.8-3.8,1.3c-0.3,0.1-0.6,0.3-0.7,0.5
				C798.4,38.1,798.1,38.9,797.8,39.7z M807.9,46.7c0.8,1.1,1.5,2.2,2.4,3.3c2-1.2,4-2.4,6-3.6c-0.9-1.3-1.7-2.5-2.6-3.6
				c-1.7,0.8-0.7,2.4-1.5,3.5c-0.5-0.1-1.1-0.2-1.6-0.4C809.4,45.6,808.6,45.8,807.9,46.7z M762.5,47.1c-0.7,1.4-1.3,2.8-2,4.2
				c2.3,0.7,4.5,1.4,6.7,2c0.4-0.9,0.8-1.6,1.2-2.5C766.4,49.7,764.5,48.4,762.5,47.1z M765.5,42.8c2,1.3,3.9,2.6,5.8,3.8
				c0.6-0.6,1.2-1.1,1.8-1.6c-1.6-1.7-3.2-3.4-4.8-5.2C767.3,40.9,766.4,41.8,765.5,42.8z M766.9,54.1c-1.8-0.6-3.6-1.2-5.4-1.7
				c0.3,0.7,0.6,1.3,0.9,1.9c0.2,0.5,0.1,0.8-0.4,1.1c-0.6,0.3-1.1,0.7-1.9,1.1c2,0.5,3.8,1,5.7,1.5
				C766.1,56.6,766.5,55.4,766.9,54.1z M806.1,37c-1.3,1.7-2.6,3.3-3.9,4.9c1,0.7,1.9,1.4,2.8,2c0.8-1,1.6-1.9,2.3-2.8
				c0.1-0.2,0.2-0.6,0.1-0.8C807.1,39.2,806.6,38.2,806.1,37z M807.1,79.5c-0.9,0.8-1.8,1.6-2.7,2.5c0.2,0.3,0.5,0.7,0.7,1
				c0.2,0.2,0.5,0.6,0.7,0.6c1.4-0.1,2.7-0.4,4.2-0.6C809,81.7,808,80.6,807.1,79.5z M811.4,84.9c-0.8-1.5-0.8-1.5-2.4-1.2
				c-1,0.2-1.9,0.3-3.1,0.5c1,1.1,1.9,2.1,2.8,3.1C809.7,86.5,810.6,85.7,811.4,84.9z M766.5,46.8c0.2,1.5,0.5,2.9,2.2,3.4
				c0.7-1,1.3-1.9,1.9-2.8C769.5,45.7,768,46.4,766.5,46.8z M820.2,68.3c-1.3,0.5-2.3,0.9-3.5,1.4c0.8,1.1,1.5,2.1,2.3,3.2
				C819.4,71.3,819.7,69.9,820.2,68.3z M813.5,66.5c-0.4,1.5-0.8,2.9-1.1,4.4c1.1-0.5,2.2-1,3.3-1.5
				C814.9,68.5,814.2,67.6,813.5,66.5z M786.4,38.5c-0.8-0.8-1.6-1.5-2.3-2.2c-0.5,1.1-1,2-1.5,3C783.9,39.1,785.1,38.8,786.4,38.5z
				 M765.1,43.3c-0.8,1.2-1.5,2.3-2.4,3.5c1.1-0.2,2-0.4,2.9-0.6C765.5,45.2,765.3,44.4,765.1,43.3z M793.4,34
				c-0.4-0.6-0.7-1.1-1.2-1.7c-0.6,0.6-1,1.2-1.5,1.7c0.4,0.4,0.8,0.9,1.2,1.4C792.5,34.9,792.9,34.5,793.4,34z M761.5,54.6
				c-0.4-0.9-0.8-1.7-1.2-2.7c-0.4,1.4-0.8,2.6-1.1,3.8c0.1,0,0.1,0.1,0.2,0.1C760.1,55.4,760.8,55,761.5,54.6z M793.6,38.7
				c-0.6-0.8-1.2-1.6-1.7-2.2c-0.7,0.6-1.3,1.2-2.1,1.8C791.2,38.4,792.4,38.5,793.6,38.7z M775.2,84.8c0.9-0.2,1.7-0.3,2.7-0.5
				c-1-0.6-1.9-1.2-2.7-1.7C775.2,83.3,775.2,84,775.2,84.8z M814.8,54.7c-0.8,0.2-1.5,0.4-2.1,0.6c0.2,0.8,0.4,1.5,0.7,2.5
				C813.8,56.7,814.2,55.8,814.8,54.7z M782.5,38c0.4-0.8,0.8-1.4,1.1-2c-0.6-0.5-1.1-0.9-1.8-1.5C782.1,35.7,782.3,36.7,782.5,38z
				 M785.4,33.8c-0.1,0-0.1,0-0.2,0c-0.3,0.7-0.6,1.3-0.9,2c0.6,0.4,1.1,0.8,1.7,1.3C785.8,35.9,785.6,34.9,785.4,33.8z M817.4,56
				c0.3-0.7,0.6-1.3,0.9-2.1c-1,0.2-1.8,0.4-2.7,0.6C816.3,55,816.8,55.5,817.4,56z M767.4,82c-0.7,0.5-1.1,0.8-1.5,1.1
				c0.4,0.5,0.8,1,1.3,1.5C767.2,83.7,767.3,83,767.4,82z M766.3,46.1c0.6-0.2,1.2-0.3,1.9-0.5c-0.8-0.5-1.5-0.9-2.3-1.4
				C766.1,44.9,766.2,45.5,766.3,46.1z M799.7,34.8c0.9-0.3,1.5-0.5,2.4-0.8c-0.7-0.3-1.2-0.5-1.8-0.7
				C800.1,33.7,799.9,34.2,799.7,34.8z M799.3,35.9c0,0.1,0.1,0.2,0.1,0.2c1.3-0.5,2.6-1,3.9-1.4c0-0.1-0.1-0.2-0.1-0.2
				C801.9,34.8,800.5,35.1,799.3,35.9z M764.1,47.3c0.7,0.5,1.3,0.8,2,1.3c-0.2-0.7-0.3-1.2-0.4-1.8C765.3,47,764.8,47.2,764.1,47.3
				z M810.2,45c0,0.1,0.1,0.1,0.1,0.2c0.4,0.1,0.8,0.1,1.3,0.2c0.1-0.5,0.2-0.9,0.4-1.6C811.2,44.3,810.7,44.7,810.2,45z
				 M813.8,77.2c0.2,1.4,0.4,1.5,1.6,0.9C814.8,77.8,814.3,77.5,813.8,77.2z M760.2,61.6c-0.3,0.2-0.5,0.4-0.9,0.7
				c0.7,0.1,1.2,0.1,1.7,0.2c0-0.1,0.1-0.1,0.1-0.2C760.8,62.1,760.6,61.9,760.2,61.6z M763.6,62c-0.4,0.3-0.7,0.5-1.2,0.8
				c0.8,0.1,1.3,0.2,1.9,0.3C764.1,62.6,763.9,62.3,763.6,62z"/>
			<path fill="#0727E2" d="M787.9,61.9c-2.4-2.3-4.8-4.6-7.4-7c-0.1,0.9-0.1,1.5-0.2,2.1c-0.9-0.3-1.1-0.9-0.7-1.9
				c0.3-0.6,0.3-1.1-0.4-1.4c-0.5,0.5-1,1-1.5,1.5c-1.1,1-1.7,1-2.8,0c-0.7-0.6-1.3-1.3-2-1.9c-0.2-0.2-0.1-0.5-0.2-0.7
				c0.2,0,0.6,0,0.7,0.2c0.7,0.6,1.4,1.3,2.1,1.9c0.5,0.5,0.9,0.4,1.4,0c0.5-0.5,1.1-1.1,1.6-1.6c-0.1-0.1-0.1-0.1-0.2-0.2
				c-0.4,0.2-0.7,0.4-1.1,0.6c-0.1-0.1-0.1-0.1-0.2-0.2c0.2-0.4,0.3-0.7,0.6-1.2c-0.3,0-0.6,0.1-0.9,0.1c-1.1,0.2-2.1-0.5-2.2-1.6
				c-0.1-1,0.8-2,1.8-2c1.1,0,2,0.9,1.9,1.9c0,0.3,0,0.6,0,0.9c0.5,0,0.8-0.9,1.2,0c-0.1,0.2-0.3,0.4-0.4,0.7c0.6-0.2,1.9-1.5,1.9-2
				c0-0.3-0.2-0.6-0.4-0.8c-0.6-0.6-1.2-1.1-1.8-1.7c-0.3-0.3-0.4-0.6,0.2-1c0.9,0.9,1.9,1.8,2.9,2.7c0.5,0.5,0.3,1.2-0.1,1.7
				c-0.5,0.6-1.1,1.2-1.6,1.8c0.4,0.6,0.8,0.9,1.5,0.6c0.3-0.2,0.8-0.1,1.2,0c0.1,0,0.3,0.3,0.4,0.4c-0.2,0.1-0.3,0.3-0.5,0.3
				c-0.3,0.1-0.7,0.1-1.3,0.2c2.5,2.4,4.8,4.6,7.4,7c0-1.2,0-2.2,0-3.2c0-1.8,0-3.7,0-5.5c0-0.2-0.2-0.4-0.4-0.6
				c-0.2-0.1-0.5-0.2-0.8-0.2c0-0.1,0-0.2,0-0.3c0.3-0.1,0.5-0.1,0.8-0.2c0.2-0.1,0.3-0.2,0.4-0.3c-0.1-0.1-0.3-0.3-0.4-0.4
				c-0.4-0.1-0.8,0-0.6-0.7c0.3,0,0.6,0,0.8-0.1c0.1,0,0.3-0.2,0.3-0.3c0-0.1-0.2-0.2-0.3-0.3c0,0-0.1,0-0.1,0
				c-0.3-0.1-0.6-0.3-0.8-0.4c0.3-0.1,0.6-0.3,0.9-0.4c0,0,0.1,0,0.2,0c0.2-0.5,0-0.7-0.5-0.7c-0.9,0-1.9,0-2.8-0.1
				c-1-0.1-1.3-0.6-1.3-1.6c0-0.9,0-1.7,0-2.6c0.1-0.1,0.2-0.1,0.3-0.2c0.2,0.2,0.5,0.4,0.5,0.6c0.1,0.6,0.1,1.3,0.1,1.9
				c0,0.6,0.3,0.9,0.8,1c1,0,2,0,3,0c0.1-1.3,0.1-2.5,0.2-3.7c0.9-0.3,1-0.2,1.1,0.7c0,1,0,2,0,3c1,0,2,0,2.9,0c0.6,0,1-0.4,0.9-1
				c0-0.6,0-1.2,0.1-1.9c0-0.2,0.2-0.3,0.4-0.5c0.1,0.2,0.4,0.3,0.4,0.5c0,0.8,0.1,1.6,0,2.4c-0.1,0.8-0.6,1.3-1.4,1.4
				c-0.9,0.1-1.8,0.1-2.7,0.1c-0.6,0-0.7,0.2-0.5,0.5c0.4,0.2,0.8,0.4,1.1,0.5c-0.3,0.2-0.7,0.4-1,0.6c-0.3,0.4-0.1,0.4,0.4,0.5
				c0.2,0,0.4,0.2,0.6,0.4c-0.2,0.1-0.4,0.2-0.6,0.4c-0.2,0.1-0.4,0.2-0.6,0.3c0.5,0.3,0.9,0.5,1.2,0.8c-0.3,0.2-0.7,0.3-1.1,0.5
				c0,2.9,0,5.9,0,9.1c2.2-2.3,4.4-4.6,6.6-6.9c-0.9-0.8-2.1-0.3-3.1-0.6c-0.1-0.7,0.4-0.9,0.8-0.9c0.8,0.1,1.6,0.3,2.3,0.4
				c0.3,0.1,0.5,0.2,0.9,0.1c-0.2-0.3-0.4-0.6-0.5-1c-0.1-0.5-0.1-1.1-0.1-1.6c0-0.2,0.3-0.3,0.5-0.5c0.1,0.2,0.3,0.4,0.4,0.6
				c0.1,0.5,0.2,1,0.3,1.6c0.4-0.5,0.8-0.9,1.2-1.4c-0.2-0.2-0.6-0.5-1-0.8c-0.3-0.3-0.7-0.6-0.9-0.9c-1.1-1.2-1.1-1.8,0-2.9
				c0.4-0.4,0.7-0.8,1.1-1.1c0.2-0.2,0.5-0.3,0.7-0.4c0.1,0.1,0.1,0.1,0.2,0.2c-0.1,0.2-0.1,0.5-0.3,0.7c-0.2,0.3-0.5,0.6-0.8,0.8
				c-1,1.1-1,1.3-0.1,2.3c0.5,0.6,1.1,1.1,1.6,1.5c0.8-0.7,1.5-1.4,2.3-2.1c0.3-0.3,0.6-0.7,1-0.2c0.4,0.4,0.1,0.7-0.2,1
				c-0.7,0.7-1.4,1.4-2.1,2.3c0.8,0.7,1.6,1.4,2.5,2.1c0.2,0.1,0.7,0,1-0.1c0.5-0.3,0.8-0.8,1.3-1.2c0.2-0.2,0.5-0.3,0.8-0.4
				c0.1,0.2,0.2,0.2,0.2,0.2c-0.1,0.7-1.9,2.7-2.6,2.7c-0.3,0-0.8-0.1-1-0.3c-0.7-0.5-1.3-1.1-1.9-1.6c-0.2-0.2-0.4-0.4-0.7-0.6
				c-0.4,0.4-0.7,0.8-1.1,1.2c0.8,0.1,1.4,0.1,2.1,0.2c-0.6,0.9-1.1,1.1-2.1,0.8c-0.7-0.2-0.7-0.2-1.1,0.2c0.4,1.1,1.1,2.1-0.1,3.3
				c-0.2-0.8-0.3-1.7-0.5-2.6c-2.2,2.3-4.3,4.5-6.6,6.8c2.8,0,5.5,0,8.4,0c-0.5-0.7-0.9-1.3-1.4-1.9c1-0.3,1.7,0.2,2.1,1.2
				c0.1,0.2,0.3,0.4,0.4,0.6c0.1-0.2,0.2-0.4,0.3-0.6c0.1-0.2,0.3-0.3,0.4-0.4c0.1,0.2,0.3,0.3,0.3,0.5c0.1,0.2,0,0.4,0,0.8
				c0.9-0.8,0.9-2.5,2.7-2.1c-0.5,0.6-0.9,1.2-1.4,1.8c0.7,0,1.2,0,1.9,0c0-0.7,0-1.5,0-2.3c0-1.9,0.6-2.4,2.5-2.4
				c0.5,0,1,0,1.5,0.1c0.1,0,0.3,0.2,0.3,0.3c0,0.1-0.2,0.3-0.3,0.3c-0.6,0.1-1.2,0.1-1.8,0.1c-0.9,0-1.2,0.2-1.2,1.1
				c0,0.9,0,1.8,0,2.7c0.9,0,1.7,0,2.5,0c0.3,0,0.5,0,0.8,0.2c0.1,0.1,0.3,0.4,0.2,0.5c-0.1,0.2-0.3,0.4-0.4,0.4c-1,0.1-2,0.1-3,0.2
				c0,1,0,2,0,3c0,0.6,0.4,0.9,1,0.9c0.6,0,1.2,0,1.8,0c0.2,0,0.4,0.3,0.6,0.4c-0.2,0.1-0.4,0.3-0.6,0.4c-0.8,0-1.7,0.1-2.5,0
				c-0.7-0.1-1.1-0.5-1.1-1.2c-0.1-1.1-0.1-2.3-0.2-3.5c-0.5,0-1.1,0-1.7,0c0.4,0.6,0.8,1.1,1.2,1.7c-0.7,0.5-1.1,0.2-1.5-0.2
				c-0.2-0.2-0.3-0.5-0.4-0.7c-0.2-0.3-0.3-0.5-0.5-0.8c-0.1,0.3-0.2,0.5-0.3,0.8c-0.1,0.2-0.3,0.2-0.5,0.4
				c-0.1-0.1-0.2-0.3-0.3-0.4c-0.1-0.2,0-0.4-0.3-0.8c-0.2,0.2-0.4,0.4-0.5,0.7c-0.5,1.1-0.9,1.4-2,1.3c0.4-0.6,0.7-1.2,1.1-1.8
				c-2.7,0-5.3,0-8.1,0c2.4,2.2,4.6,4.3,6.8,6.4c0.4-0.2,0.8-0.4,1.2-0.6c0.1,0.1,0.1,0.1,0.2,0.2c-0.2,0.3-0.3,0.5-0.5,0.8
				c-0.1,0.1,0,0.3,0,0.5c0.1,0,0.3,0,0.4-0.1c0.3-0.1,0.5-0.3,0.8-0.5c0.1,0.1,0.1,0.1,0.2,0.2c-0.2,0.5-0.3,0.9-0.5,1.4
				c0.1,0,0.1,0,0.2,0.1c0.4-0.2,0.8-0.5,1.1-0.7c0.6,0.7-1,1.1,0,1.8c0.5-0.6,1-1.2,1.6-1.8c0.4-0.4,0.8-0.7,1.2-0.9
				c0.4-0.1,1-0.1,1.4,0.1c0.7,0.5,1.2,1.1,1.8,1.7c0.1,0.1,0.1,0.4,0.1,0.6c-0.2,0-0.5,0-0.7-0.1c-0.5-0.4-1-0.9-1.5-1.3
				c-0.4-0.4-0.8-0.4-1.2,0c-0.7,0.7-1.4,1.4-2.1,2.2c0.7,0.7,1.4,1.4,2.2,2.2c0.3,0.3,0.6,0.5,0.2,0.9c-0.4,0.4-0.7,0.2-1-0.1
				c-0.7-0.7-1.5-1.4-2.3-2.2c-0.7,0.8-1.4,1.6-2,2.5c-0.1,0.2,0,0.8,0.2,1c0.4,0.5,0.9,0.9,1.4,1.4c0.1,0.1,0.1,0.4,0.1,0.6
				c-0.2,0-0.5,0.1-0.6,0c-0.7-0.6-1.4-1.3-2-2c-0.2-0.2-0.2-0.9,0-1.2c0.3-0.6,0.8-1.1,1.3-1.6c0.4-0.4,0.8-0.7,1.3-1
				c-0.8-1-1.1,0.1-1.8,0c0.1-0.3,0.1-0.5,0.2-0.8c0.1-0.2,0.2-0.5,0.2-0.7c-0.1,0-0.2-0.1-0.3-0.1c-0.3,0.2-0.6,0.5-0.9,0.8
				c-0.5-0.4-0.2-0.7,0-1c0.1-0.2,0.1-0.4,0.1-0.6c-0.2,0.1-0.4,0.1-0.6,0.2c-0.2,0.1-0.5,0.3-0.7,0.4c-0.1-0.1-0.2-0.1-0.2-0.2
				c0.2-0.4,0.4-0.7,0.6-1.2c-2.2-2.1-4.5-4.3-6.9-6.5c0,4.7,0,9.2,0,13.8c0.5,0,1,0,1.6,0c0.5,0,1.1-0.1,1.6,0
				c1.5,0.1,1.8,0.4,2.1,1.9c0.3,0.1,0.6,0.2,1.2,0.4c-0.4,0.3-0.6,0.4-0.8,0.5c-0.1,0.1-0.3,0.2-0.4,0.3c0.1,0.1,0.3,0.2,0.4,0.4
				c0.2,0.2,0.4,0.3,0.6,0.5c-0.2,0.1-0.4,0.3-0.7,0.3c-0.6,0-1.3,0-1.9,0c-0.1-0.7-0.1-0.7,0.8-1c-0.2-0.2-0.3-0.4-0.4-0.5
				c-0.1-0.1-0.3-0.3-0.5-0.4c0.2-0.1,0.3-0.3,0.5-0.4c0.1-0.1,0.2-0.1,0.5-0.2c-0.4-0.4-0.7-0.7-1.1-1.1c-0.2,0.5-0.3,0.7-0.4,1.1
				c-0.3-0.3-0.6-0.6-0.9-0.9c-0.5,0-1.3,0-2.1,0c0,0.2,0,0.5,0,0.8c0.2,0,0.3,0,0.5,0c1.5,0,1.8,0.5,1.5,2c0,0.2-0.2,0.3-0.4,0.4
				c-0.1-0.2-0.4-0.3-0.4-0.5c0.1-1-0.4-1.2-1.5-1c0.2,0.6,0.3,1.1,0.5,1.6c0.1,0.4,0.1,0.6-0.3,0.6c-0.3,0-0.5,0-0.8,0
				c-0.3,0-0.6-0.1-0.9-0.2c0.1-0.2,0.3-0.4,0.4-0.6c0.1-0.4,0.1-0.8,0.2-1.2c-1.1-0.3-1.2-0.2-1.3,0.7c0,0.3-0.2,0.5-0.4,0.9
				c-0.6-0.8-0.5-1.5-0.3-2.2c0.3-1,1.3-0.2,1.9-0.6c0.1-0.8-0.1-0.9-1.9-0.7c-0.3,0.3-0.5,0.6-0.8,0.9c-0.2-0.2-0.3-0.5-0.6-0.7
				c-0.7,0-0.8,0.1-1,1c0.1,0,0.2,0.1,0.3,0.1c0.2,0.1,0.4,0.3,0.7,0.4c-0.2,0.1-0.4,0.3-0.6,0.4c-0.1,0.1-0.3,0.3-0.3,0.3
				c0.1,0.1,0.2,0.2,0.4,0.3c0.2,0.2,0.3,0.3,0.5,0.5c-0.2,0.1-0.4,0.3-0.6,0.3c-0.6,0-1.2,0-1.9,0c-0.1-0.5-0.2-0.8,0.4-0.8
				c0.1,0,0.3-0.2,0.3-0.3c0-0.1-0.2-0.2-0.3-0.3c-0.2-0.2-0.4-0.3-0.7-0.5c0.3-0.2,0.5-0.4,0.9-0.6c0-0.1,0.1-0.4,0.1-0.7
				c0.2-0.8,0.8-1.1,1.5-1.1c1.1,0,2.2,0,3.4,0c0-4.5,0-9,0-13.7c-2.4,2.6-4.8,5-7.3,7.6c0.9,0.1,1.6,0.1,2.3,0.2
				c-0.3,0.8-0.7,1-1.7,0.9c-0.3,0-0.6-0.2-0.9-0.3c-0.2,0-0.5,0-0.6,0.1c-0.1,0.1,0,0.4,0.1,0.6c0.2,0.3,0.4,0.6,0.7,0.9
				c-0.1,0.1-0.2,0.2-0.2,0.3c-0.3-0.2-0.6-0.4-1-0.6c-0.2-0.1-0.3-0.1-0.5-0.1c0,0.2,0,0.4,0.1,0.5c0.4,0.4,0.8,0.7,1.3,1.1
				c0.3,0.3,0.7,0.7,1,1.1c0.5,0.7,0.4,1.4-0.2,2c-0.5,0.5-0.9,1-1.4,1.4c-0.2,0.2-0.5,0.1-0.8,0.2c0.1-0.2,0-0.5,0.2-0.7
				c0.3-0.4,0.7-0.8,1.1-1.2c0.6-0.6,0.6-1.1,0-1.7c-0.6-0.7-1.2-1.4-1.9-2.2c-0.3,0.4-0.5,0.7-0.7,0.9c0.2,0.4,0.3,0.7,0.5,1
				c-0.1,0.1-0.1,0.1-0.2,0.2c-0.3-0.1-0.7-0.3-1-0.5c-0.3,0.2-0.3,0.2,0.3,1.6c-0.5-0.2-0.9-0.3-1.4-0.4c0,0-0.1,0.1-0.3,0.2
				c-0.2,0-0.5,0-0.7-0.1c-0.1-0.1-0.1-0.4-0.1-0.6c0-0.3,0-0.6,0-0.9c0-0.2,0-0.3,0-0.5c0.2,0,0.3,0,0.5,0c0.2,0,0.5,0,0.6,0
				c-0.1-0.5-0.1-0.8-0.1-1.1c0.3,0,0.6,0.1,1,0.1c0.1-0.1,0.3-0.3,0.6-0.6c-0.9-0.7-1.7-1.5-2.5-2.1c-0.2-0.1-0.7,0-0.9,0.2
				c-0.5,0.4-0.9,0.9-1.4,1.4c-0.2,0.2-0.5,0.1-0.8,0.2c0.1-0.3,0.1-0.6,0.2-0.8c0.5-0.6,1-1.1,1.6-1.6c0.5-0.5,1.2-0.6,1.7-0.1
				c0.8,0.6,1.5,1.3,2.3,1.9c0.2,0.1,0.4,0.2,0.7,0.3c-0.1-0.8-1.2-1-0.6-1.9c0.4,0.4,0.8,0.6,1.1,0.9c0.6-0.2,0.6-0.6,0.4-1.1
				c-0.5-1.1-0.4-1.5,0.5-2.3c0.2,0.7,0.3,1.4,0.5,2.1c2.4-2.5,4.7-4.9,7.2-7.5c-4.5,0-9,0-13.4,0c0,0.9,0,1.8,0,2.6
				c0,2.2-0.5,2.6-2.7,2.5c-0.4,0-0.8,0-1.1-0.1c-0.2,0-0.4-0.2-0.5-0.3c0.2-0.2,0.3-0.4,0.5-0.4c0.6-0.1,1.3-0.1,1.9-0.1
				c0.8,0,1-0.4,1-1.1c0-0.8-0.5-0.7-1-0.7c-0.7,0-1.3,0-2,0c-0.2,0-0.3-0.2-0.5-0.4c0.2-0.1,0.4-0.4,0.5-0.4c0.9,0,1.9,0,2.9,0
				c0.1-0.5,0.1-0.9,0.2-1.5c-1.1,0-2.1-0.1-3.2-0.1c-0.4,0-0.8,0.1-0.9-0.5c0-0.6,0.4-0.6,0.8-0.6c1,0,1.9,0,3,0
				c0-0.5,0.1-1,0.1-1.7c-0.8,0-1.6,0-2.4-0.1c-0.4,0-1,0.3-1-0.4c0-0.1,0.6-0.3,0.9-0.3c0.8-0.1,1.5,0,2.3,0c0.4-1.5,0-1.9-1.3-1.9
				c-0.5,0-1,0-1.5-0.1c-0.2,0-0.3-0.2-0.4-0.4c0.2-0.1,0.3-0.4,0.5-0.4c0.9,0,1.8,0,2.7,0c0.7,0,1,0.5,1.1,1.1
				c0.1,1.1,0.1,2.2,0.1,3.4c0,0.5,0.1,0.7,0.6,0.7c4.2,0,8.5,0,12.7,0C787.9,62.1,787.9,62,787.9,61.9z M776.6,51.5
				c0-0.1,0.1-0.1,0.1-0.2c-0.4-0.4-0.9-0.8-1.3-1.2C775.4,51.1,775.8,51.5,776.6,51.5z M777.5,50.4c0.1-0.1,0.2-0.2,0.3-0.3
				c-0.4-0.4-0.8-0.8-1.2-1.1c-0.1,0.1-0.2,0.2-0.3,0.3C776.7,49.7,777.1,50.1,777.5,50.4z"/>
			<path fill="#0727E2" d="M779.1,36.8c-0.2,1.4-0.3,2.6-0.5,3.9c-1.3-0.2-2.5-0.5-3.8-0.7c0.1-1.3,0.2-2.5,0.3-3.9
				C776.5,36.3,777.8,36.6,779.1,36.8z M775.6,39.4c0.8,0.2,1.6,0.3,2.5,0.5c0.1-0.9,0.2-1.7,0.3-2.5c-0.8-0.2-1.6-0.3-2.5-0.5
				C775.8,37.8,775.7,38.6,775.6,39.4z"/>
		</g>
	</g>
</g>
<path d="M418.2,155.2"/>
<g id="_x34_mcvvL_1_">
	<g>
	</g>
</g>
<g>
	<g id="ugBgUe_4_">
		<g>
			<linearGradient id="SVGID_1_" gradientUnits="userSpaceOnUse" x1="54.0271" y1="214.646" x2="218.5437" y2="214.646">
				<stop  offset="0" style="stop-color:#1B1464"/>
				<stop  offset="0.5361" style="stop-color:#0000FF"/>
				<stop  offset="1" style="stop-color:#1B1464"/>
			</linearGradient>
			<path fill="url(#SVGID_1_)" d="M169.9,232.4c-9.6-10.4-19.6-20.3-33.1-25.7c-1.4-0.6-3.5-0.4-4.8,0.3
				c-9.4,4.5-16.9,11.5-24.3,18.7c-1.7,1.7-3.3,3.4-5.1,5.2c-1.4-1.8-2.8-3.4-4.4-5.4c9.6-6.9,19.1-13.7,28.6-20.6
				c-4.9,0-9.3,1.9-13.3,4.6c-3.8,2.5-7.5,5.2-11.2,8c-10.2,7.8-21.1,8.8-32.5,3c-5.4-2.7-10.5-6.2-15.7-9.3
				c0.1-0.3,0.3-0.5,0.4-0.8c3.5,0.3,7,0.7,10.5,1c12.8,0.8,24.9-1.7,36.5-7.3c3.2-1.5,6.5-3,9.9-4.2c7.1-2.5,14.2-2.2,21.3,0.4
				c1.2,0.4,2.8,0.6,3.9,0.1c10.5-5,20.8-4.4,31.2,0.4c6,2.8,12.3,5.3,18.7,7.1c10.1,2.9,20.5,2.5,30.8,1.1c0.4-0.1,0.9-0.1,1.4,0.1
				c-10.7,7.9-21.5,15.9-36.1,12.8c-5.7-1.2-10.2-4.7-14.9-8c-3.6-2.5-7.1-5.2-10.9-7.4c-4.7-2.8-9.8-3.9-15-2.8
				c10.9,7.6,21.9,15.3,33,23c-1.7,2.2-2.9,4-4.2,5.7C170.3,232.4,170.1,232.4,169.9,232.4z"/>
			<linearGradient id="SVGID_2_" gradientUnits="userSpaceOnUse" x1="240.0636" y1="104.5687" x2="272.8098" y2="104.5687">
				<stop  offset="0" style="stop-color:#1B1464"/>
				<stop  offset="0.5361" style="stop-color:#0000FF"/>
				<stop  offset="1" style="stop-color:#1B1464"/>
			</linearGradient>
			<path fill="url(#SVGID_2_)" d="M272.8,94.8c-1.3,7-3.2,13.7-6.7,19.9c-4.8,8.3-10.9,15.6-17.8,23.1c0.2-2.7,0.2-4.8,0.4-6.9
				c0.5-7.2-0.7-14-3-20.8c-3.7-10.6-5.2-21.7-5.5-33c7.1,12.5,15.4,24.6,14.5,40.2c4.2-12,8.3-23.7,12.3-35.4c1.1-3.4,1.6-7,3-10.6
				c1,4.5,2,9,3,13.5C272.8,88.2,272.8,91.5,272.8,94.8z"/>
			<linearGradient id="SVGID_3_" gradientUnits="userSpaceOnUse" x1="11.7701" y1="167.1726" x2="70.719" y2="167.1726">
				<stop  offset="0" style="stop-color:#1B1464"/>
				<stop  offset="0.5361" style="stop-color:#0000FF"/>
				<stop  offset="1" style="stop-color:#1B1464"/>
			</linearGradient>
			<path fill="url(#SVGID_3_)" d="M70.7,194.7c-15.4-4.2-30.6-6.9-44-14.8c-5.4-3.2-9.3-7.7-11.2-13.7c-1.6-4.9-2.8-9.8-3.7-15
				c1.3,2,2.7,3.9,4,5.9c4.6,6.8,10.8,11.5,18.3,14.7c6.2,2.6,11.9,6.2,17.2,9c-5-6.2-5.5-14.7-6.5-23.1c-0.7-5.9-2-11.7-3.2-18.1
				c1.3,1.9,2.3,3.4,3.4,5c5.3,7.4,9.3,15.5,11.5,24.4c1.7,7.1,5.1,13.5,9.5,19.3C67.5,190.3,68.9,192.2,70.7,194.7z"/>
			<linearGradient id="SVGID_4_" gradientUnits="userSpaceOnUse" x1="202.3539" y1="165.914" x2="261.2132" y2="165.914">
				<stop  offset="0" style="stop-color:#1B1464"/>
				<stop  offset="0.5361" style="stop-color:#0000FF"/>
				<stop  offset="1" style="stop-color:#1B1464"/>
			</linearGradient>
			<path fill="url(#SVGID_4_)" d="M230.8,138.7c-1.4,9-2.5,18.2-4.3,27.4c-0.9,4.8-3,9.4-4.5,13.8c6.3-6.1,15.3-8.5,23.3-12.8
				c6.1-3.3,10-8.8,13.7-14.4c0.6-0.9,1.2-1.8,2.1-3.2c-2.4,14.1-6.3,26.1-20.5,32c-12.2,5.1-25,8.2-38.4,11.7
				c0.7-1.1,1.1-1.8,1.5-2.4c6.7-8.2,11-17.6,13.7-27.8C220,153.7,225.5,145.9,230.8,138.7z"/>
			<linearGradient id="SVGID_5_" gradientUnits="userSpaceOnUse" x1="1.4741" y1="141.7607" x2="43.8527" y2="141.7607">
				<stop  offset="0" style="stop-color:#1B1464"/>
				<stop  offset="0.5361" style="stop-color:#0000FF"/>
				<stop  offset="1" style="stop-color:#1B1464"/>
			</linearGradient>
			<path fill="url(#SVGID_5_)" d="M32.9,111.6c0.9,3.6,2.2,7.1,2.7,10.7c0.9,7,1.4,14,2.1,21.1c0.9,9.6,2.7,19,6.2,28.5
				c-1.1-0.6-1.8-0.9-2.4-1.3C30.8,163.9,20.3,157,12,147.3C4,138,0.8,127.1,1.6,114.8c0.8,1.6,1.7,3.1,2.5,4.7
				c3.9,8.1,9.5,14.9,16.2,20.9c4.3,3.8,7.5,8.9,10.4,12.5c-4.7-13-1.1-27,1.2-41.1C32.3,111.7,32.6,111.7,32.9,111.6z"/>
			<linearGradient id="SVGID_6_" gradientUnits="userSpaceOnUse" x1="229.4419" y1="139.8647" x2="271.8451" y2="139.8647">
				<stop  offset="0" style="stop-color:#1B1464"/>
				<stop  offset="0.5361" style="stop-color:#0000FF"/>
				<stop  offset="1" style="stop-color:#1B1464"/>
			</linearGradient>
			<path fill="url(#SVGID_6_)" d="M229.4,170.3c1.5-6.2,3.4-12,4.2-17.9c1.3-8.9,1.9-17.8,2.8-26.8c0.6-5.4,1.3-10.7,4.2-16.2
				c2.4,14.8,6,28.9,1.1,42.7c2.7-3.6,5-8.2,8.7-11.3c8.9-7.7,16.1-16.5,20.5-27.5c0.3,0.1,0.6,0.2,0.9,0.2
				c-0.3,3.5-0.4,7.1-0.9,10.5c-1.4,9.5-5.8,17.5-12.4,24.3C250.1,157.2,240,163.8,229.4,170.3z"/>
			<linearGradient id="SVGID_7_" gradientUnits="userSpaceOnUse" x1="0" y1="106.2465" x2="33.0182" y2="106.2465">
				<stop  offset="0" style="stop-color:#1B1464"/>
				<stop  offset="0.5361" style="stop-color:#0000FF"/>
				<stop  offset="1" style="stop-color:#1B1464"/>
			</linearGradient>
			<path fill="url(#SVGID_7_)" d="M17.7,118.2c-0.1-15.2,8-27,14.6-39.5c0.2,0,0.5,0.1,0.7,0.1c-0.3,3.8-0.3,7.7-1,11.4
				c-1.5,7.5-3.1,15-5.2,22.4c-2.2,7.7-3.3,15.4-2.3,23.3c0.1,0.8,0.1,1.6,0.2,3.3c-2.6-2.9-4.8-5.2-6.9-7.7
				c-7.3-8.8-13.9-18-16.5-29.4C-1.1,92.2,0.1,82.3,3,73.2c2.5,8.3,5.1,16.9,7.9,25.5c1.7,5.1,3.8,10.1,5.7,15.1
				C17.1,115.2,17.3,116.7,17.7,118.2z"/>
			<linearGradient id="SVGID_8_" gradientUnits="userSpaceOnUse" x1="166.4466" y1="187.3868" x2="240.3636" y2="187.3868">
				<stop  offset="0" style="stop-color:#1B1464"/>
				<stop  offset="0.5361" style="stop-color:#0000FF"/>
				<stop  offset="1" style="stop-color:#1B1464"/>
			</linearGradient>
			<path fill="url(#SVGID_8_)" d="M166.4,199.2c5.2-2.2,9.8-3.8,14.1-6c3-1.6,5.8-3.8,8.4-6c7.5-6.4,15-12.9,22.4-19.3
				c0.2-0.1,0.4-0.2,0.9-0.1c-5.8,8.4-8,19.1-16.3,25.9c-1.9,1.5-4.1,2.6-5.9,3.7c9.6-0.5,19.6-0.5,29.5-1.5
				c7.9-0.8,14.4-5.6,20.9-10.2c-1.8,3.4-12.5,14.1-16.4,16.6c-6.9,4.4-14.6,5.3-22.4,4.5c-5.5-0.6-11.1-1.5-16.5-2.7
				C179,202.8,173.1,201,166.4,199.2z"/>
			<linearGradient id="SVGID_9_" gradientUnits="userSpaceOnUse" x1="32.5942" y1="188.3783" x2="105.4829" y2="188.3783">
				<stop  offset="0" style="stop-color:#1B1464"/>
				<stop  offset="0.5361" style="stop-color:#0000FF"/>
				<stop  offset="1" style="stop-color:#1B1464"/>
			</linearGradient>
			<path fill="url(#SVGID_9_)" d="M105.5,201.3c-9.2,2.1-18.4,4.5-27.7,6.2c-5.1,0.9-10.4,0.8-15.6,0.7c-6-0.2-11.6-2.4-16-6.4
				c-4.7-4.2-9.1-8.9-13.6-13.4c0.2-0.2,0.3-0.4,0.5-0.5c2.8,1.7,5.7,3.5,8.5,5.2c6,3.5,12.5,5,19.4,5.1c7.6,0.1,15.2,0.5,22.3,0.7
				c-7.5-2.4-11.9-8.6-15.4-15.8c-2.3-4.7-5-9.3-7.4-13.9c0.2-0.2,0.4-0.4,0.6-0.6c6.9,6,14.2,11.5,20.5,18
				c4.8,4.9,10.1,8.3,16.4,10.7c2.5,1,5,2,7.5,3C105.5,200.6,105.5,200.9,105.5,201.3z"/>
			<linearGradient id="SVGID_10_" gradientUnits="userSpaceOnUse" x1="231.9132" y1="67.3815" x2="265.5421" y2="67.3815">
				<stop  offset="0" style="stop-color:#1B1464"/>
				<stop  offset="0.5361" style="stop-color:#0000FF"/>
				<stop  offset="1" style="stop-color:#1B1464"/>
			</linearGradient>
			<path fill="url(#SVGID_10_)" d="M256.4,100.9c-0.3-1.3-0.7-2.6-1-3.9c-1.7-7.1-5.3-13.2-9.9-18.8c-4.8-5.8-9.6-11.6-11.5-19.1
				c-0.8-3.2-1.4-6.4-2.1-9.7c0.4,0,0.7,0,0.7,0c2.8,6,7.2,10.5,12.8,14c4.9,3.1,7.6,7.8,9,13.3c0.3,1.3,0.7,2.6,1.3,3.9
				c0-2-0.1-4.1,0-6.1c0.4-6.7,0.9-13.3,1.5-20c0.6-7,1.1-13.9-2.1-20.7c3.2,2,7.3,8.4,8.9,13.5c2.2,6.8,1.8,13.6,0.4,20.4
				c-2.3,11.1-5,22.1-7.5,33.2C256.7,100.9,256.6,100.9,256.4,100.9z"/>
			<linearGradient id="SVGID_11_" gradientUnits="userSpaceOnUse" x1="7.5546" y1="69.0415" x2="40.3686" y2="69.0415">
				<stop  offset="0" style="stop-color:#1B1464"/>
				<stop  offset="0.5361" style="stop-color:#0000FF"/>
				<stop  offset="1" style="stop-color:#1B1464"/>
			</linearGradient>
			<path fill="url(#SVGID_11_)" d="M17.4,35.3c-2.8,6.9-2.4,13.8-1.7,20.9c0.8,8.8,1.3,17.7,1.6,26.6c0.3-1.1,0.6-2.1,0.8-3.2
				c1.4-6.9,5-12.3,11.1-16c5-3.1,8.7-7.4,11.3-12.8C39.9,59,37.6,66.5,32.6,73c-2.7,3.5-5.4,6.9-8.1,10.4
				c-3.9,5.2-6.4,11.1-7.7,17.4c-0.1,0.4-0.3,0.8-0.8,2c-2.2-9.5-4.6-18.2-6.3-27c-1.2-6.3-2.1-12.7-2.2-19
				C7.4,48.3,11.5,41.3,17.4,35.3z"/>
			<linearGradient id="SVGID_12_" gradientUnits="userSpaceOnUse" x1="19.9777" y1="41.8376" x2="52.4253" y2="41.8376">
				<stop  offset="0" style="stop-color:#1B1464"/>
				<stop  offset="0.5361" style="stop-color:#0000FF"/>
				<stop  offset="1" style="stop-color:#1B1464"/>
			</linearGradient>
			<path fill="url(#SVGID_12_)" d="M38.4,15.5c-1.8,2.7-3.2,4.8-4.5,7c-3.4,5.6-5.5,11.5-6.2,18c-0.4,4.1-1.5,8.1-2.1,11.8
				c2.1-3,4.2-6.5,6.8-9.5c2.1-2.4,4.6-4.5,7.2-6.3c4.7-3.2,9.5-6.2,12.7-11.4c1.1,6.2-3.3,15.8-9,20c-1.3,1-2.7,1.9-4.1,2.8
				c-11.7,7.9-11.7,7.9-18.7,20.2c-0.2-3.4-0.6-6.1-0.6-8.9c0.1-7.5-0.1-15.1,0.8-22.5C22,26.5,29.1,20.4,38.4,15.5z"/>
			<linearGradient id="SVGID_13_" gradientUnits="userSpaceOnUse" x1="220.254" y1="40.6143" x2="252.9521" y2="40.6143">
				<stop  offset="0" style="stop-color:#1B1464"/>
				<stop  offset="0.5361" style="stop-color:#0000FF"/>
				<stop  offset="1" style="stop-color:#1B1464"/>
			</linearGradient>
			<path fill="url(#SVGID_13_)" d="M234.8,14.7c11.4,5.2,17.8,13.7,18.1,26.1c0.2,8.5,0,17,0,25.5c-0.3,0.1-0.7,0.1-1,0.2
				c-0.5-1.1-0.9-2.2-1.5-3.3c-2.8-6.1-7.3-10.6-12.9-14.3c-4.2-2.8-8.5-5.8-12-9.5c-4.1-4.2-4.9-10-5.3-15.8
				c3.8,6.1,10.5,8.8,15.5,13.3c4.4,4,8,8.9,11.2,12.6C244.7,38.3,244.2,25,234.8,14.7z"/>
			<linearGradient id="SVGID_14_" gradientUnits="userSpaceOnUse" x1="207.5793" y1="18.3184" x2="239.6723" y2="18.3184">
				<stop  offset="0" style="stop-color:#1B1464"/>
				<stop  offset="0.5361" style="stop-color:#0000FF"/>
				<stop  offset="1" style="stop-color:#1B1464"/>
			</linearGradient>
			<path fill="url(#SVGID_14_)" d="M239.7,36.6c-6.1-4.6-11.7-9.1-16-15.1C218.4,14.2,212.8,7,207.6,0c7.2,3.2,15.3,6.2,21.5,12.3
				c2.3,2.2,4,5.3,5.2,8.3C236.3,25.6,237.8,30.9,239.7,36.6z"/>
			<linearGradient id="SVGID_15_" gradientUnits="userSpaceOnUse" x1="33.1071" y1="19.4528" x2="66.0224" y2="19.4528">
				<stop  offset="0" style="stop-color:#1B1464"/>
				<stop  offset="0.5361" style="stop-color:#0000FF"/>
				<stop  offset="1" style="stop-color:#1B1464"/>
			</linearGradient>
			<path fill="url(#SVGID_15_)" d="M66,1.6c-2,2.2-4.2,4.2-6.1,6.6c-3.3,4.2-6.5,8.4-9.4,12.8c-4.4,6.8-10.4,11.9-17.4,16.2
				c2.6-6.8,5.1-13.6,7.9-20.2c0.8-1.8,2.6-3.3,4.2-4.6C51.4,7.4,58.6,4.3,66,1.6z"/>
		</g>
	</g>
	<g id="PjfkwK_2_">
		<g>
			<linearGradient id="SVGID_16_" gradientUnits="userSpaceOnUse" x1="70.2845" y1="89.3089" x2="199.6915" y2="89.3089">
				<stop  offset="0" style="stop-color:#1B1464"/>
				<stop  offset="0.5361" style="stop-color:#0000FF"/>
				<stop  offset="1" style="stop-color:#1B1464"/>
			</linearGradient>
			<path fill="url(#SVGID_16_)" d="M59.9,94.1c0-3.4,0-6.7,0-10.1c0.1-0.5,0.2-1,0.3-1.5c0.5-3.4,0.9-6.9,1.6-10.2
				c11-50,67.8-74.9,112-49c0.4,0.2,0.8,0.5,1.4,0.9c-0.5,0.3-0.9,0.4-1.2,0.6c-6.3,2.5-11.9,6.1-16.9,10.6
				c-13.8,12.6-21,28.5-22.6,46.9c-0.8,8.9-0.4,17.9,1.3,26.8c2.1,10.8,5.6,21.1,9.3,31.4c2.6,7.2,4.9,14.5,7.4,21.7
				c0.3,1,0.3,1.5-1,1.8c-10.8,2.2-21.7,2.3-32.4-0.5c-30.9-8.1-50.2-27.9-57.6-59.1C60.7,101.1,60.4,97.6,59.9,94.1z"/>
			<linearGradient id="SVGID_17_" gradientUnits="userSpaceOnUse" x1="70.2845" y1="88.4418" x2="199.6915" y2="88.4418">
				<stop  offset="0" style="stop-color:#1B1464"/>
				<stop  offset="0.5361" style="stop-color:#0000FF"/>
				<stop  offset="1" style="stop-color:#1B1464"/>
			</linearGradient>
			<path fill="url(#SVGID_17_)" d="M181.2,150.5c-5.5-12.1-14.2-22.2-20.4-33.8c-4.6-8.5-7.9-17.4-9.3-27
				c-1.7-11.4-0.1-22.5,3.6-33.4c2.8-8.1,6.5-15.8,12.8-21.9c2.8-2.8,6.1-5.1,9.1-7.6c0.9-0.7,1.6-0.6,2.5,0
				c17.4,12.7,28.4,29.5,31.4,50.9c4.1,29.1-5.7,53-28.3,71.8C182.2,149.9,181.7,150.2,181.2,150.5z"/>
		</g>
	</g>
</g>
<g>
</g>
<g>
</g>
<g>
</g>
<g>
</g>
<g>
</g>
<g>
</g>
<g>
</g>
<g>
</g>
<g>
</g>
<g>
</g>
<g>
</g>
<g>
</g>
<g>
</g>
<g>
</g>
<g>
</g>
</svg>
